P2
3 2
255
0 128 0 
255 0 255 
